<svg t="1710981655049" class="icon" viewBox="0 0 1024 1024" version="1.1" xmlns="http://www.w3.org/2000/svg" p-id="1790" width="16" height="16"><path d="M350.586092 851.901046a49.195323 49.195323 0 0 1-41.3696-22.480738C251.415631 740.159015 228.430769 735.452554 201.814646 730.0096c-28.132431-5.758031-66.658462-13.638892-116.6336-67.749415C36.635569 609.693538 14.670769 551.227077 19.893169 488.483446 30.089846 366.016985 144.403692 276.1728 149.263754 272.407631c0.433231-0.334769 0.8704-0.661662 1.311508-0.984616 192.015754-138.728369 423.061662-173.654646 602.978461-91.155692 145.132308 66.548185 236.658215 201.724062 251.116308 370.869169 2.311877 27.092677-17.770338 50.932185-44.863016 53.244062-27.124185 2.347323-50.928246-17.7664-53.244061-44.859077-11.52-134.750523-80.431262-237.650708-194.051939-289.752615-147.471754-67.619446-340.267323-36.635569-503.402338 80.836923-6.612677 5.348431-85.011692 70.2976-91.124185 146.388677-2.768738 34.4576 10.161231 66.6624 39.5264 98.461538 28.451446 30.802708 42.606277 33.705354 64.035446 38.088862 51.030646 10.440862 95.972431 27.553477 170.310893 142.35963 14.777108 22.823385 8.258954 53.303138-14.564431 68.080246a49.033846 49.033846 0 0 1-26.706708 7.916308z" p-id="1791"></path><path d="M630.413785 439.406277c-12.599138 0-25.194338-4.804923-34.812062-14.418708-29.534523-29.538462-63.432862-41.554708-103.613046-36.745846-33.012185 3.950277-57.670892 18.223262-57.919015 18.368985-23.256615 14.087877-53.377969 6.573292-67.465847-16.675446-14.091815-23.252677-6.518154-53.618215 16.734523-67.710031 53.570954-32.468677 181.417354-67.320123 281.88357 33.138215 19.227569 19.223631 19.227569 50.396554 0 69.620185a49.0496 49.0496 0 0 1-34.808123 14.422646zM460.512492 679.431877c-22.134154 0-42.247877-15.029169-47.765661-37.490215-17.266215-70.199138-131.812431-62.471877-132.958523-62.369477-27.076923 1.984985-50.723446-18.195692-52.850216-45.229293s17.92-50.688 44.945723-52.917169c4.856123-0.393846 48.848738-3.540677 98.091323 8.963939 73.527138 18.680123 122.671262 64.1536 138.381785 128.043323 6.490585 26.399508-9.649231 53.070769-36.048738 59.561353a49.2544 49.2544 0 0 1-11.795693 1.437539zM792.930462 620.347077a49.207138 49.207138 0 0 1-42.519631-24.343631c-9.885538-16.864492-29.010708-38.596923-80.754216-32.748308-35.1232 3.985723-64.937354 18.510769-65.2288 18.656493-24.32 12.150154-53.889969 2.300062-66.051938-22.019939-12.158031-24.32-2.300062-53.889969 22.019938-66.051938 65.346954-32.6656 206.891323-63.755815 274.959754 52.369723 13.749169 23.457477 5.880123 53.618215-17.577354 67.367385a48.966892 48.966892 0 0 1-24.847753 6.770215z" p-id="1792"></path></svg>